<?xml version="1.0" encoding="UTF-8"?>
<svg id="_レイヤー_2" data-name="レイヤー 2" xmlns="http://www.w3.org/2000/svg" xmlns:xlink="http://www.w3.org/1999/xlink" viewBox="0 0 803.97 102">
  <defs>
    <style>
      .cls-1 {
        fill: none;
      }

      .cls-1, .cls-2, .cls-3 {
        stroke-width: 0px;
      }

      .cls-2 {
        fill: #2b2b2b;
      }

      .cls-3 {
        fill: #fff;
      }

      .cls-4 {
        clip-path: url(#clippath);
      }
    </style>
    <clipPath id="clippath">
      <path class="cls-1" d="m51,102h0c0-28.17-22.83-51-51-51h0c28.17,0,51-22.83,51-51h0c0,28.17,22.83,51,51,51h0c-28.17,0-51,22.83-51,51Z"/>
    </clipPath>
  </defs>
  <g id="_レイヤー_1-2" data-name="レイヤー 1">
    <g>
      <g>
        <g>
          <path class="cls-3" d="m196.26,90.5h-71.01c-1.05,0-1.93-.88-1.93-2.05s.88-2.15,1.93-2.15h32.96v-11.51h-17.49c-1.05,0-1.85-.88-1.85-2.05s.79-2.15,1.85-2.15h17.49v-10.73h-16.08c-4.22,7.22-9.75,12.97-14.5,16.49-1.41,1.07-3.08-.78-1.85-2.34,5.54-7.12,11.25-16.49,14.76-24.97.7-1.66,1.58-2.93,3.43-2.93s3.52,1.66,3.52,3.8c0,1.66-.97,3.02-2.2,3.61l-1.05,2.34h13.89v-8.78c0-1.85,1.49-3.41,3.16-3.41s3.08,1.56,3.08,3.41v8.78h21.09c0-2.15,1.58-3.8,3.52-3.8s3.52,1.66,3.52,3.8-1.67,4-3.6,4h-24.52v10.83h15.82c.18-1.85,1.49-3.32,3.25-3.32,1.85,0,3.34,1.66,3.34,3.71s-1.49,3.71-3.34,3.71h-18.98v11.61h28.47c.09-2.05,1.67-3.71,3.52-3.71s3.52,1.76,3.52,3.9-1.76,3.9-3.69,3.9Zm-10.37-50.43c0,3.9-5.18,4.78-6.15,1.07h-38.67c-.97,3.71-6.06,2.83-6.06-1.07V11c0-3.41,4.13-4.68,5.71-1.85h39.37c1.58-2.83,5.8-1.56,5.8,1.85v29.07Zm-6.33-26.83h-38.32v23.8h38.32V13.25Z"/>
          <path class="cls-3" d="m239.96,85.24c-2.01,0-1.88-2.79,0-2.79,9.92-.21,18.71-5.23,22.41-12.82,2.2-4.53,2.32-9.34.06-13.17-2.89-5.16-7.66-8.36-13.18-9.13,1.19,10.24-5.15,17.84-18.21,29.54-.5.49-1.32.42-1.76-.21-3.58-4.53-8.04-16.65,2.76-26.97,4.77-4.53,11.24-6.62,17.96-5.71,6.53.91,12.43,4.53,16.01,10.31,3.2,5.09,3.58,11.22.88,16.79-4.21,8.78-14.38,14.15-26.93,14.15Zm-6.03-32.4c-6.91,7.11-4.46,15.47-3.14,18.74,12.43-11.22,16.32-16.1,15.82-24.39-4.77.07-9.17,2.02-12.68,5.64Z"/>
          <path class="cls-3" d="m342.33,52.85c-7.38,8.19-20.92,20.09-44.12,30.82-2.55,1.17-4.04-2.73-1.58-4,14.76-7.41,39.99-26.24,49.39-43.6-5.01.98-12.74,1.07-16.7-.98-5.54,7.41-18.1,18.14-25.75,23.9-2.37,1.76-4.48-1.46-2.37-3.41,6.33-5.95,17.31-16.97,22.67-24.19,1.76-2.34,3.69-5.37,3.43-7.61-.09-1.07-1.14-2.15-1.93-3.02-2.2-1.85-.62-4.78,1.93-3.71,3.43,1.37,5.45,3.61,6.15,6.34.44,1.95.18,4.19-.97,6.73,6.33.49,15.47.1,19.07-1.76,2.02-1.07,3.6.98,3.34,3.32-.44,4-4.48,12.19-12.57,21.17Zm18.19-25.46c-1.05.29-2.2-.49-2.55-1.66-.97-1.07-2.55-3.12-4.75-4.58-1.67-1.07-.7-3.12.88-2.73,4.66.98,7.47,3.12,8.17,5.37.62,1.85-.09,3.32-1.76,3.61Zm6.5-6.05c-1.32.19-2.11-.29-2.55-1.56-1.14-1.56-3.87-3.8-4.83-4.58-1.49-1.07-.79-3.02.88-2.73,4.31.88,7.56,3.02,8.17,5.27.62,1.66,0,3.32-1.67,3.61Z"/>
          <path class="cls-3" d="m436.37,50.41c-8.09,13.75-25.49,30.43-46.14,38.43-2.72,1.07-4.04-2.83-1.49-4.1,22.41-11.41,41.92-33.46,44.29-42.63.35-1.46.44-2.24-1.05-2.44-6.85-.88-12.39.19-21.27,3.02-7.21,2.34-13.53,4.39-17.93-5.27-1.23-2.63,1.32-4.49,3.08-2.63,3.6,3.61,7.12,3.02,14.15,1.27,9.93-2.44,16.35-2.83,24.08-2.05,3.43.39,5.27,2.24,5.62,5.46.35,2.83-.79,6.63-3.34,10.93Zm-.35-27.7c-5.18.29-9.58.88-13.53,1.46-10.72,1.66-17.23,2.34-22.94-4.49-1.93-2.24.44-4.88,2.55-3.32,4.66,3.41,9.67,2.73,17.84,1.46,4.22-.68,8.96-1.27,14.85-1.56,2.02-1.17,4.39.39,4.39,3.02,0,1.85-1.14,3.32-3.16,3.41Z"/>
          <path class="cls-3" d="m516.96,54.7c-9.49,9.66-22.5,20.97-31.73,20.88-4.13,0-7.03-2.24-8.7-6.44-.97-2.24.97-3.9,2.72-2.44,3.08,2.63,7.65,1.85,12.92-.68,14.33-7.02,34.1-28.29,42.54-38.82,1.41-1.85,3.95-.1,2.99,2.24-1.41,3.41-10.9,15.31-20.74,25.26Zm-24.17-8.58c-1.41,0-2.64-1.07-2.9-2.54-1.67-2.44-5.1-7.32-9.93-10.63-2.02-1.37-.79-4.39,1.49-3.61,7.47,2.34,13.09,7.51,14.06,12.19.44,2.24-.35,4.58-2.72,4.58Z"/>
          <path class="cls-3" d="m611.44,70.02c-6.24,3.12-19.16,7.51-30.06,4.58-7.73-2.05-6.85-12.97-6.06-23.51.88-12.29.97-20.29-4.57-21.66-2.64-.68-2.02-4.1.53-4.1,3.25.1,5.71,1.27,7.38,3.41,3.52,4.39,2.99,11.8,2.28,19.41,9.49-2.93,18.63-9.75,18.63-12.1v-.1s-.09,0-.18-.1c-2.37-1.56-.79-4.88,1.67-3.8,3.95,1.76,4.66,4.19,4.48,6.05-.35,5.37-10.37,10.93-24.08,14.34-.26.1-.62,0-.97-.1-.97,9.27-1.05,15.31,2.46,16.1,10.02,2.15,21.36-2.54,25.93-4.68,2.02-1.27,4.66.2,4.66,2.93,0,1.46-.7,2.63-2.11,3.32Zm1.32-39.99c-4.22,0-7.65-3.8-7.65-8.49s3.43-8.49,7.65-8.49,7.65,3.8,7.65,8.49-3.43,8.49-7.65,8.49Zm0-13.85c-2.72,0-4.83,2.34-4.83,5.36s2.11,5.37,4.83,5.37,4.83-2.34,4.83-5.37-2.11-5.36-4.83-5.36Z"/>
          <path class="cls-3" d="m690.98,54.7c-9.49,9.66-22.5,20.97-31.73,20.88-4.13,0-7.03-2.24-8.7-6.44-.97-2.24.97-3.9,2.72-2.44,3.08,2.63,7.65,1.85,12.92-.68,14.33-7.02,34.1-28.29,42.54-38.82,1.41-1.85,3.95-.1,2.99,2.24-1.41,3.41-10.9,15.31-20.74,25.26Zm-24.17-8.58c-1.41,0-2.64-1.07-2.9-2.54-1.67-2.44-5.1-7.32-9.93-10.63-2.02-1.37-.79-4.39,1.49-3.61,7.47,2.34,13.09,7.51,14.06,12.19.44,2.24-.35,4.58-2.72,4.58Z"/>
          <path class="cls-3" d="m777.37,52.85c-7.38,8.19-20.92,20.09-44.12,30.82-2.55,1.17-4.04-2.73-1.58-4,14.76-7.41,39.99-26.24,49.39-43.6-5.01.98-12.74,1.07-16.7-.98-5.54,7.41-18.1,18.14-25.75,23.9-2.37,1.76-4.48-1.46-2.37-3.41,6.33-5.95,17.31-16.97,22.67-24.19,1.76-2.34,3.69-5.37,3.43-7.61-.09-1.07-1.14-2.15-1.93-3.02-2.2-1.85-.62-4.78,1.93-3.71,3.43,1.37,5.45,3.61,6.15,6.34.44,1.95.18,4.19-.97,6.73,6.33.49,15.47.1,19.07-1.76,2.02-1.07,3.6.98,3.34,3.32-.44,4-4.48,12.19-12.57,21.17Zm18.19-25.46c-1.05.29-2.2-.49-2.55-1.66-.97-1.07-2.55-3.12-4.75-4.58-1.67-1.07-.7-3.12.88-2.73,4.66.98,7.47,3.12,8.17,5.37.62,1.85-.09,3.32-1.76,3.61Zm6.5-6.05c-1.32.19-2.11-.29-2.55-1.56-1.14-1.56-3.87-3.8-4.83-4.58-1.49-1.07-.79-3.02.88-2.73,4.31.88,7.56,3.02,8.17,5.27.62,1.66,0,3.32-1.67,3.61Z"/>
        </g>
        <path class="cls-3" d="m160.4,35.43h0c0-5.45-4.42-9.88-9.88-9.88h0c5.45,0,9.88-4.42,9.88-9.88h0c0,5.45,4.42,9.88,9.88,9.88h0c-5.45,0-9.88,4.42-9.88,9.88Z"/>
      </g>
      <g class="cls-4">
        <path class="cls-3" d="m51,102h0c0-28.17-22.83-51-51-51h0c28.17,0,51-22.83,51-51h0c0,28.17,22.83,51,51,51h0c-28.17,0-51,22.83-51,51Z"/>
        <path class="cls-2" d="m28.1,63.04h0c8.22,0,14.88-6.66,14.88-14.88h0c0,8.22,6.66,14.88,14.88,14.88h0"/>
        <path class="cls-3" d="m27.75,69.07h0c8.41,0,15.22-6.82,15.22-15.22h0c0,8.41,6.82,15.22,15.22,15.22h0"/>
      </g>
    </g>
  </g>
</svg>