<?xml version="1.0" encoding="UTF-8"?>
<svg id="_レイヤー_2" data-name="レイヤー 2" xmlns="http://www.w3.org/2000/svg" xmlns:xlink="http://www.w3.org/1999/xlink" viewBox="0 0 682.21 450">
  <defs>
    <style>
      .cls-1 {
        fill: none;
      }

      .cls-1, .cls-2, .cls-3 {
        stroke-width: 0px;
      }

      .cls-2 {
        fill: #2b2b2b;
      }

      .cls-3 {
        fill: #fff;
      }

      .cls-4 {
        clip-path: url(#clippath);
      }
    </style>
    <clipPath id="clippath">
      <path class="cls-1" d="m341.1,326.05h0c0-90.04-72.99-163.02-163.02-163.02h0c90.04,0,163.02-72.99,163.02-163.02h0c0,90.04,72.99,163.02,163.02,163.02h0c-90.04,0-163.02,72.99-163.02,163.02Z"/>
    </clipPath>
  </defs>
  <g id="_レイヤー_1-2" data-name="レイヤー 1">
    <g>
      <g>
        <g>
          <path class="cls-2" d="m73.11,450H1.94c-1.06,0-1.94-.88-1.94-2.05s.88-2.15,1.94-2.15h33.03v-11.54h-17.53c-1.06,0-1.85-.88-1.85-2.05s.79-2.15,1.85-2.15h17.53v-10.75h-16.12c-4.23,7.23-9.78,13-14.53,16.52-1.41,1.08-3.08-.78-1.85-2.35,5.55-7.14,11.27-16.52,14.8-25.03.7-1.66,1.58-2.93,3.44-2.93s3.52,1.66,3.52,3.81c0,1.66-.97,3.03-2.2,3.62l-1.06,2.35h13.92v-8.8c0-1.86,1.5-3.42,3.17-3.42s3.08,1.56,3.08,3.42v8.8h21.14c0-2.15,1.59-3.81,3.52-3.81s3.52,1.66,3.52,3.81-1.67,4.01-3.61,4.01h-24.57v10.85h15.85c.18-1.86,1.5-3.32,3.26-3.32,1.85,0,3.35,1.66,3.35,3.72s-1.5,3.72-3.35,3.72h-19.03v11.63h28.54c.09-2.05,1.67-3.72,3.52-3.72s3.52,1.76,3.52,3.91-1.76,3.91-3.7,3.91Zm-10.39-50.55c0,3.91-5.2,4.79-6.17,1.08H17.79c-.97,3.72-6.08,2.84-6.08-1.08v-29.14c0-3.42,4.14-4.69,5.73-1.86h39.46c1.59-2.84,5.81-1.56,5.81,1.86v29.14Zm-6.34-26.89H17.97v23.86h38.4v-23.86Z"/>
          <path class="cls-2" d="m116.91,444.72c-2.01,0-1.89-2.79,0-2.79,9.94-.21,18.75-5.24,22.46-12.85,2.2-4.54,2.33-9.36.06-13.2-2.89-5.17-7.68-8.38-13.21-9.15,1.2,10.27-5.16,17.88-18.25,29.61-.5.49-1.32.42-1.76-.21-3.59-4.54-8.05-16.69,2.77-27.03,4.78-4.54,11.26-6.63,18-5.73,6.54.91,12.46,4.54,16.05,10.34,3.21,5.1,3.59,11.24.88,16.83-4.22,8.8-14.41,14.18-26.99,14.18Zm-6.04-32.48c-6.92,7.12-4.47,15.5-3.15,18.79,12.46-11.24,16.36-16.13,15.86-24.44-4.78.07-9.19,2.03-12.71,5.66Z"/>
          <path class="cls-2" d="m219.51,412.26c-7.4,8.21-20.96,20.14-44.22,30.9-2.55,1.17-4.05-2.74-1.59-4.01,14.8-7.43,40.08-26.3,49.5-43.7-5.02.98-12.77,1.08-16.74-.98-5.55,7.43-18.15,18.19-25.81,23.95-2.38,1.76-4.49-1.47-2.38-3.42,6.34-5.96,17.35-17.01,22.73-24.25,1.76-2.35,3.7-5.38,3.44-7.63-.09-1.08-1.15-2.15-1.94-3.03-2.2-1.86-.62-4.79,1.94-3.72,3.44,1.37,5.46,3.62,6.17,6.36.44,1.96.18,4.2-.97,6.75,6.34.49,15.5.1,19.11-1.76,2.03-1.08,3.61.98,3.35,3.32-.44,4.01-4.49,12.22-12.6,21.22Zm18.23-25.52c-1.06.29-2.2-.49-2.55-1.66-.97-1.08-2.55-3.13-4.76-4.6-1.67-1.08-.71-3.13.88-2.74,4.67.98,7.49,3.13,8.19,5.38.62,1.86-.09,3.32-1.76,3.62Zm6.52-6.06c-1.32.2-2.11-.29-2.55-1.56-1.15-1.56-3.88-3.81-4.84-4.6-1.5-1.08-.79-3.03.88-2.74,4.32.88,7.57,3.03,8.19,5.28.62,1.66,0,3.32-1.67,3.62Z"/>
          <path class="cls-2" d="m313.77,409.82c-8.1,13.79-25.54,30.5-46.24,38.52-2.73,1.08-4.05-2.84-1.5-4.11,22.46-11.44,42.02-33.54,44.39-42.73.35-1.47.44-2.25-1.06-2.44-6.87-.88-12.42.2-21.32,3.03-7.22,2.35-13.56,4.4-17.97-5.28-1.23-2.64,1.32-4.5,3.08-2.64,3.61,3.62,7.13,3.03,14.18,1.27,9.95-2.44,16.38-2.84,24.14-2.05,3.44.39,5.28,2.25,5.64,5.48.35,2.84-.79,6.65-3.35,10.95Zm-.35-27.77c-5.2.29-9.6.88-13.56,1.47-10.75,1.66-17.26,2.35-22.99-4.5-1.94-2.25.44-4.89,2.55-3.32,4.67,3.42,9.69,2.74,17.88,1.47,4.23-.68,8.98-1.27,14.89-1.56,2.03-1.17,4.4.39,4.4,3.03,0,1.86-1.15,3.32-3.17,3.42Z"/>
          <path class="cls-2" d="m394.54,414.12c-9.51,9.68-22.55,21.02-31.8,20.92-4.14,0-7.05-2.25-8.72-6.45-.97-2.25.97-3.91,2.73-2.44,3.08,2.64,7.66,1.86,12.95-.68,14.36-7.04,34.18-28.35,42.63-38.91,1.41-1.86,3.96-.1,2.99,2.25-1.41,3.42-10.92,15.35-20.79,25.32Zm-24.22-8.6c-1.41,0-2.64-1.08-2.91-2.54-1.67-2.44-5.11-7.33-9.95-10.66-2.03-1.37-.79-4.4,1.5-3.62,7.49,2.35,13.12,7.53,14.09,12.22.44,2.25-.35,4.6-2.73,4.6Z"/>
          <path class="cls-2" d="m489.24,429.47c-6.25,3.13-19.2,7.53-30.12,4.6-7.75-2.05-6.87-13-6.08-23.56.88-12.32.97-20.34-4.58-21.71-2.64-.68-2.03-4.11.53-4.11,3.26.1,5.73,1.27,7.4,3.42,3.52,4.4,3,11.83,2.29,19.46,9.51-2.93,18.67-9.78,18.67-12.12v-.1s-.09,0-.18-.1c-2.38-1.56-.79-4.89,1.67-3.81,3.96,1.76,4.67,4.2,4.49,6.06-.35,5.38-10.39,10.95-24.14,14.37-.26.1-.62,0-.97-.1-.97,9.29-1.06,15.35,2.47,16.13,10.04,2.15,21.4-2.54,25.98-4.69,2.03-1.27,4.67.2,4.67,2.93,0,1.47-.7,2.64-2.11,3.32Zm1.32-40.09c-4.23,0-7.66-3.81-7.66-8.51s3.44-8.51,7.66-8.51,7.66,3.81,7.66,8.51-3.44,8.51-7.66,8.51Zm0-13.88c-2.73,0-4.84,2.35-4.84,5.38s2.11,5.38,4.84,5.38,4.84-2.35,4.84-5.38-2.11-5.38-4.84-5.38Z"/>
          <path class="cls-2" d="m568.96,414.12c-9.51,9.68-22.55,21.02-31.8,20.92-4.14,0-7.05-2.25-8.72-6.45-.97-2.25.97-3.91,2.73-2.44,3.08,2.64,7.66,1.86,12.95-.68,14.36-7.04,34.18-28.35,42.63-38.91,1.41-1.86,3.96-.1,2.99,2.25-1.41,3.42-10.92,15.35-20.79,25.32Zm-24.22-8.6c-1.41,0-2.64-1.08-2.91-2.54-1.67-2.44-5.11-7.33-9.95-10.66-2.03-1.37-.79-4.4,1.5-3.62,7.49,2.35,13.12,7.53,14.09,12.22.44,2.25-.35,4.6-2.73,4.6Z"/>
          <path class="cls-2" d="m655.55,412.26c-7.4,8.21-20.96,20.14-44.22,30.9-2.55,1.17-4.05-2.74-1.59-4.01,14.8-7.43,40.08-26.3,49.5-43.7-5.02.98-12.77,1.08-16.74-.98-5.55,7.43-18.15,18.19-25.81,23.95-2.38,1.76-4.49-1.47-2.38-3.42,6.34-5.96,17.35-17.01,22.73-24.25,1.76-2.35,3.7-5.38,3.44-7.63-.09-1.08-1.15-2.15-1.94-3.03-2.2-1.86-.62-4.79,1.94-3.72,3.44,1.37,5.46,3.62,6.17,6.36.44,1.96.18,4.2-.97,6.75,6.34.49,15.5.1,19.11-1.76,2.03-1.08,3.61.98,3.35,3.32-.44,4.01-4.49,12.22-12.6,21.22Zm18.23-25.52c-1.06.29-2.2-.49-2.55-1.66-.97-1.08-2.55-3.13-4.76-4.6-1.67-1.08-.71-3.13.88-2.74,4.67.98,7.49,3.13,8.19,5.38.62,1.86-.09,3.32-1.76,3.62Zm6.52-6.06c-1.32.2-2.11-.29-2.55-1.56-1.15-1.56-3.88-3.81-4.84-4.6-1.5-1.08-.79-3.03.88-2.74,4.32.88,7.57,3.03,8.19,5.28.62,1.66,0,3.32-1.67,3.62Z"/>
        </g>
        <path class="cls-2" d="m37.17,394.8h0c0-5.47-4.43-9.9-9.9-9.9h0c5.47,0,9.9-4.43,9.9-9.9h0c0,5.47,4.43,9.9,9.9,9.9h0c-5.47,0-9.9,4.43-9.9,9.9Z"/>
      </g>
      <g class="cls-4">
        <path class="cls-2" d="m341.1,326.05h0c0-90.04-72.99-163.02-163.02-163.02h0c90.04,0,163.02-72.99,163.02-163.02h0c0,90.04,72.99,163.02,163.02,163.02h0c-90.04,0-163.02,72.99-163.02,163.02Z"/>
        <path class="cls-3" d="m267.89,201.51h0c26.27,0,47.56-21.29,47.56-47.56h0c0,26.27,21.29,47.56,47.56,47.56h0"/>
        <path class="cls-2" d="m266.69,220.76h0c26.88,0,48.66-21.79,48.66-48.67h0c0,26.88,21.79,48.66,48.66,48.66h0"/>
      </g>
    </g>
  </g>
</svg>